REM DIRINDEX 1\8,1\2\11,1\3\12,1\3\14,1\5\15,1\5\16,1\6\17,1\6\18,1\4\19,1\4\20,1\4\21,1\4\22,1\7\23,1\7\24,1\7\25,1\2\9\26,1\2\9\27,1\2\10\28,1\2\10\29,1\2\10\30,1\2\10\31,1\2\10\32,1\3\13\33,1\3\13\34,1\3\13\35
REM DIRNAME folder01,folder02,folder03,folder04,folder05,folder06,folder07,folder08,folder09,folder10,folder11,folder12,folder13,folder14,folder15,folder16,folder17,folder18,folder19,folder20,folder21,folder22,folder23,folder24,folder25,folder26,folder27,folder28,folder29,folder30,folder31,folder32,folder33,folder34,folder35
TITLE ""
FILE "108 108_UNIT5_SET6.mp3" MP3
  TRACK 01 AUDIO
    TITLE "14:cjc123_1956"
    INDEX 01 00:00:00
  TRACK 02 AUDIO
    TITLE "0:"
    INDEX 01 00:02:69
  TRACK 03 AUDIO
    TITLE "33:cjc123_1957"
    INDEX 01 00:03:39
  TRACK 04 AUDIO
    TITLE "0:"
    INDEX 01 00:04:36
  TRACK 05 AUDIO
    TITLE "34:cjc123_1958"
    INDEX 01 00:04:50
  TRACK 06 AUDIO
    TITLE "0:"
    INDEX 01 00:05:59
  TRACK 07 AUDIO
    TITLE "35:cjc123_1959"
    INDEX 01 00:06:31
  TRACK 08 AUDIO
    TITLE "0:"
    INDEX 01 00:10:06
  TRACK 09 AUDIO
    TITLE "33:cjc123_1960"
    INDEX 01 00:10:57
  TRACK 10 AUDIO
    TITLE "0:"
    INDEX 01 00:11:74
  TRACK 11 AUDIO
    TITLE "34:cjc123_1961"
    INDEX 01 00:12:14
  TRACK 12 AUDIO
    TITLE "0:"
    INDEX 01 00:13:28
  TRACK 13 AUDIO
    TITLE "35:cjc123_1962"
    INDEX 01 00:14:04
  TRACK 14 AUDIO
    TITLE "0:"
    INDEX 01 00:18:07
  TRACK 15 AUDIO
    TITLE "33:cjc123_1963"
    INDEX 01 00:18:70
  TRACK 16 AUDIO
    TITLE "0:"
    INDEX 01 00:20:06
  TRACK 17 AUDIO
    TITLE "34:cjc123_1964"
    INDEX 01 00:20:26
  TRACK 18 AUDIO
    TITLE "0:"
    INDEX 01 00:21:43
  TRACK 19 AUDIO
    TITLE "35:cjc123_1965"
    INDEX 01 00:22:13
  TRACK 20 AUDIO
    TITLE "0:"
    INDEX 01 00:26:28
  TRACK 21 AUDIO
    TITLE "33:cjc123_1966"
    INDEX 01 00:27:04
  TRACK 22 AUDIO
    TITLE "0:"
    INDEX 01 00:28:19
  TRACK 23 AUDIO
    TITLE "34:cjc123_1967"
    INDEX 01 00:28:29
  TRACK 24 AUDIO
    TITLE "0:"
    INDEX 01 00:29:44
  TRACK 25 AUDIO
    TITLE "35:cjc123_1968"
    INDEX 01 00:30:18
  TRACK 26 AUDIO
    TITLE "0:"
    INDEX 01 00:34:59
  TRACK 27 AUDIO
    TITLE "33:cjc123_1969"
    INDEX 01 00:35:49
  TRACK 28 AUDIO
    TITLE "0:"
    INDEX 01 00:36:56
  TRACK 29 AUDIO
    TITLE "34:cjc123_1970"
    INDEX 01 00:37:20
  TRACK 30 AUDIO
    TITLE "0:"
    INDEX 01 00:38:26
  TRACK 31 AUDIO
    TITLE "35:cjc123_1971"
    INDEX 01 00:39:05
  TRACK 32 AUDIO
    TITLE "0:"
    INDEX 01 00:45:45
  TRACK 33 AUDIO
    TITLE "33:cjc123_1972"
    INDEX 01 00:46:19
  TRACK 34 AUDIO
    TITLE "0:"
    INDEX 01 00:47:46
  TRACK 35 AUDIO
    TITLE "34:cjc123_1973"
    INDEX 01 00:47:58
  TRACK 36 AUDIO
    TITLE "0:"
    INDEX 01 00:48:71
  TRACK 37 AUDIO
    TITLE "35:cjc123_1974"
    INDEX 01 00:49:53
  TRACK 38 AUDIO
    TITLE "0:"
    INDEX 01 00:55:67
  TRACK 39 AUDIO
    TITLE "33:cjc123_1975"
    INDEX 01 00:56:41
  TRACK 40 AUDIO
    TITLE "0:"
    INDEX 01 00:57:48
  TRACK 41 AUDIO
    TITLE "34:cjc123_1976"
    INDEX 01 00:58:11
  TRACK 42 AUDIO
    TITLE "0:"
    INDEX 01 00:59:20
  TRACK 43 AUDIO
    TITLE "35:cjc123_1977"
    INDEX 01 01:00:00
  TRACK 44 AUDIO
    TITLE "0:"
    INDEX 01 01:05:54
  TRACK 45 AUDIO
    TITLE "33:cjc123_1978"
    INDEX 01 01:06:26
  TRACK 46 AUDIO
    TITLE "0:"
    INDEX 01 01:07:43
  TRACK 47 AUDIO
    TITLE "34:cjc123_1979"
    INDEX 01 01:07:72
  TRACK 48 AUDIO
    TITLE "0:"
    INDEX 01 01:09:09
  TRACK 49 AUDIO
    TITLE "35:cjc123_1980"
    INDEX 01 01:09:57
  TRACK 50 AUDIO
    TITLE "0:"
    INDEX 01 01:14:45
  TRACK 51 AUDIO
    TITLE "33:cjc123_1981"
    INDEX 01 01:15:23
  TRACK 52 AUDIO
    TITLE "0:"
    INDEX 01 01:16:38
  TRACK 53 AUDIO
    TITLE "34:cjc123_1982"
    INDEX 01 01:16:52
  TRACK 54 AUDIO
    TITLE "0:"
    INDEX 01 01:17:69
  TRACK 55 AUDIO
    TITLE "35:cjc123_1983"
    INDEX 01 01:18:49
  TRACK 56 AUDIO
    TITLE "0:"
    INDEX 01 01:23:58
  TRACK 57 AUDIO
    TITLE "33:cjc123_1984"
    INDEX 01 01:24:49
  TRACK 58 AUDIO
    TITLE "0:"
    INDEX 01 01:25:70
  TRACK 59 AUDIO
    TITLE "34:cjc123_1985"
    INDEX 01 01:26:21
  TRACK 60 AUDIO
    TITLE "0:"
    INDEX 01 01:27:28
  TRACK 61 AUDIO
    TITLE "35:cjc123_1986"
    INDEX 01 01:27:69
  TRACK 62 AUDIO
    TITLE "0:"
    INDEX 01 01:33:38
  TRACK 63 AUDIO
    TITLE "33:cjc123_1987"
    INDEX 01 01:34:24
  TRACK 64 AUDIO
    TITLE "0:"
    INDEX 01 01:35:47
  TRACK 65 AUDIO
    TITLE "34:cjc123_1988"
    INDEX 01 01:36:03
  TRACK 66 AUDIO
    TITLE "0:"
    INDEX 01 01:37:36
  TRACK 67 AUDIO
    TITLE "35:cjc123_1989"
    INDEX 01 01:38:14
  TRACK 68 AUDIO
    TITLE "0:"
    INDEX 01 01:43:45
  TRACK 69 AUDIO
    TITLE "33:cjc123_1990"
    INDEX 01 01:44:23
  TRACK 70 AUDIO
    TITLE "0:"
    INDEX 01 01:45:40
  TRACK 71 AUDIO
    TITLE "34:cjc123_1991"
    INDEX 01 01:46:00
  TRACK 72 AUDIO
    TITLE "0:"
    INDEX 01 01:47:15
  TRACK 73 AUDIO
    TITLE "35:cjc123_1992"
    INDEX 01 01:47:62
  TRACK 74 AUDIO
    TITLE "0:"
    INDEX 01 01:51:19
  TRACK 75 AUDIO
    TITLE "33:cjc123_1993"
    INDEX 01 01:51:66
  TRACK 76 AUDIO
    TITLE "0:"
    INDEX 01 01:53:08
  TRACK 77 AUDIO
    TITLE "34:cjc123_1994"
    INDEX 01 01:53:25
  TRACK 78 AUDIO
    TITLE "0:"
    INDEX 01 01:54:35
  TRACK 79 AUDIO
    TITLE "35:cjc123_1995"
    INDEX 01 01:55:13
  TRACK 80 AUDIO
    TITLE "0:"
    INDEX 01 01:59:38
  TRACK 81 AUDIO
    TITLE "33:cjc123_1996"
    INDEX 01 02:00:12
  TRACK 82 AUDIO
    TITLE "0:"
    INDEX 01 02:01:21
  TRACK 83 AUDIO
    TITLE "34:cjc123_1997"
    INDEX 01 02:01:39
  TRACK 84 AUDIO
    TITLE "0:"
    INDEX 01 02:02:42
  TRACK 85 AUDIO
    TITLE "35:cjc123_1998"
    INDEX 01 02:03:18
  TRACK 86 AUDIO
    TITLE "0:"
    INDEX 01 02:08:00
  TRACK 87 AUDIO
    TITLE "33:cjc123_1999"
    INDEX 01 02:08:47
  TRACK 88 AUDIO
    TITLE "0:"
    INDEX 01 02:09:71
  TRACK 89 AUDIO
    TITLE "34:cjc123_2000"
    INDEX 01 02:10:28
  TRACK 90 AUDIO
    TITLE "0:"
    INDEX 01 02:11:51
  TRACK 91 AUDIO
    TITLE "35:cjc123_2001"
    INDEX 01 02:12:27
  TRACK 92 AUDIO
    TITLE "0:"
    INDEX 01 02:16:24
